<?xml version="1.0" standalone="no"?><!DOCTYPE svg PUBLIC "-//W3C//DTD SVG 1.1//EN" "http://www.w3.org/Graphics/SVG/1.1/DTD/svg11.dtd"><svg t="1547877106039" class="icon" style="" viewBox="0 0 1024 1024" version="1.1" xmlns="http://www.w3.org/2000/svg" p-id="6624" xmlns:xlink="http://www.w3.org/1999/xlink" width="200" height="200"><defs><style type="text/css"></style></defs><path d="M831.96 123.707l-7.089-10.636h-609.94l-7.138 9.11C52.392 320.618 73.85 441.437 100.522 495.837c26.67 54.492 80.763 89.755 137.863 89.755h5.118c71.984-2.862 119.833-38.596 145.072-64.493 22.774 25.898 65.621 60.503 132.746 60.503 69.94 0 113.61-37.682 135.446-63.838 30.542 24.887 90.132 65.669 152.558 65.669 40.996 0 76.026-16.787 104.62-49.868 106.004-123.447-74.286-398.236-81.985-409.858z m2.066 489.004c-13.289 0-24.064 10.752-24.111 24.018v173.565c0 26.67-21.623 48.27-48.226 48.27H267.287c-26.6 0-48.224-21.6-48.224-48.27V636.799c-0.024-13.313-10.824-24.088-24.089-24.088-13.312 0-24.066 10.775-24.112 24.088v178.329c0 50.665 40.993 91.705 91.612 91.705h504.03c50.618 0 91.61-41.04 91.61-91.705v-178.4c-0.07-13.265-10.8-24.017-24.088-24.017z" p-id="6625"></path></svg>