<?xml version="1.0" standalone="no"?><!DOCTYPE svg PUBLIC "-//W3C//DTD SVG 1.1//EN" "http://www.w3.org/Graphics/SVG/1.1/DTD/svg11.dtd"><svg class="icon" width="200px" height="200.00px" viewBox="0 0 1024 1024" version="1.1" xmlns="http://www.w3.org/2000/svg"><path fill="#BFCBD9" d="M643.9027343749999 588.9447265625c-36.49746093750001 28.860644531250003-81.95888671875001 46.75166015625-132.08115234375 46.75166015625-50.12490234375 0-95.51337890625-17.94375-132.15673828125003-46.75166015625-69.2666015625 44.11669921875-117.52558593749998 121.57734375000001-124.12265624999998 211.29873046875 24.2384765625 3.3002929687499996 67.4033203125 6.8501953124999995 128.998828125 6.8501953124999995h254.41259765624997c61.66845703125001 0 104.8359375-3.5499023437499995 129.14472656249998-6.8501953124999995-6.5970703125000005-89.775-54.85517578125-167.18203125000002-124.19560546875-211.29873046875z"  /><path fill="#BFCBD9" d="M340.8013671875 425.13154296874995c0.21445312500000002 9.86044921875 1.1478515625 19.539843750000003 2.9408203124999996 28.915136718750002 10.038867187500001 51.7728515625 43.667578125 94.725 89.05781250000001 118.56708984375 23.733984375 12.49365234375 50.3384765625 20.24033203125 79.02158203125 20.24033203125 28.6822265625 0 55.35703125-7.7466796875 79.091015625-20.24033203125 45.319042968750004-23.84208984375 79.01894531250001-66.79423828124999 88.98837890624999-118.58291015625 1.8624023437500001-9.37705078125 2.72373046875-19.05732421875 2.93818359375-28.91689453125 0.0720703125-1.21728515625 0.35859374999999993-2.3642578125 0.35859374999999993-3.60263671875 0-41.912402343749996-15.702539062500001-79.84599609374999-40.801464843750004-109.6576171875-31.47890625-37.39306640625001-77.94404296875001-61.70361328125-130.57470703125-61.70361328125-52.489160156249994 0-99.0263671875 24.30966796875-130.5052734375 61.68515625-25.098046875 29.81162109375-40.87353515625 67.76279296875-40.87353515625 109.6751953125 0 1.2383789062500001 0.35859374999999993 2.3853515625 0.35859374999999993 3.6210937500000004zM258.2685546875 448.11406250000005c22.659082031249998 0 43.525195312499996-7.33095703125 60.734179687499996-19.539843750000003-0.0720703125-1.23486328125-0.35859374999999993-2.38271484375-0.35859374999999993-3.62021484375 0-41.913281250000004 15.70341796875-79.864453125 40.801464843750004-109.67607421875-12.19130859375-44.60009765625-52.63330078125-77.67509765625-101.17705078125-77.67509765625-58.011328125000006 0-105.19453125 47.2359375-105.19453125 105.22880859375 0 58.02802734375 47.183203125 105.282421875 105.19453125 105.282421875z"  /><path fill="#BFCBD9" d="M410.92929687500003 576.0564453124999c-45.319042968750004-23.84384765625-79.01894531250001-66.7951171875-88.9857421875-118.56708984375-18.8595703125 10.66640625-40.441992187500006 16.9224609375-63.67499999999999 16.9224609375-30.620214843750002 0-58.6564453125-11.00478515625-81.17138671875-28.700683593750004-42.45029296875 27.12392578125-72.13798828125 74.68330078125-76.22578125 129.78896484375 14.915039062499998 2.0267578125 41.4474609375 4.21259765625 79.30810546875 4.21259765625h156.17548828125c34.56298828125-0.0008789062499999999 59.0853515625-1.8096679687500001 74.57431640625-3.6562500000000004zM704.99638671875 428.55576171875c17.209863281249998 12.209765625 38.075097656249994 19.55830078125 60.664746093750004 19.55830078125 58.08076171875 0 105.26572265625-47.25439453125 105.26572265625-105.282421875 0-57.992871093750004-47.184960937499994-105.22880859375-105.26572265625-105.22880859375-48.403125 0-88.9154296875 33.092578124999996-101.1076171875 77.6935546875 25.09892578125 29.81162109375 40.80234375 67.74433593750001 40.80234375 109.6576171875 0 1.23662109375-0.28652343750000003 2.38447265625-0.35947265624999997 3.6017578125zM846.83251953125 445.71025390625c-22.44375 17.731054687500002-50.337597656250004 28.700683593750004-81.17050781249999 28.700683593750004-23.08974609375 0-44.74423828125-6.2736328125-63.605566406250006-16.93828125-9.96591796875 51.788671875-43.667578125 94.73994140625-88.98486328125001 118.58378906249999 15.4880859375 1.8474609375 40.010449218750004 3.65537109375 74.43017578125 3.65537109375h156.2466796875c37.93271484375 0 64.39306640625-2.18583984375 79.38017578124999-4.21259765625-4.0157226562499995-55.14169921875-33.70341796875-102.6650390625-76.29609375000001-129.78896484375z"  /></svg>