<?xml version="1.0" standalone="no"?><!DOCTYPE svg PUBLIC "-//W3C//DTD SVG 1.1//EN" "http://www.w3.org/Graphics/SVG/1.1/DTD/svg11.dtd"><svg t="1547893199072" class="icon" style="" viewBox="0 0 1024 1024" version="1.1" xmlns="http://www.w3.org/2000/svg" p-id="6293" xmlns:xlink="http://www.w3.org/1999/xlink" width="200" height="200"><defs><style type="text/css"></style></defs><path d="M833.583809 384.631918H189.670965A96.258657 96.258657 0 0 0 93.10929 480.385546V928.043856a96.258657 96.258657 0 0 0 96.561675 95.955639h643.912844a96.258657 96.258657 0 0 0 96.561675-95.955639V480.385546A96.258657 96.258657 0 0 0 833.583809 384.631918z m32.220894 511.393056A64.13877 64.13877 0 0 1 801.362915 960.365755H221.891859a64.13877 64.13877 0 0 1-64.340782-63.936758v-383.822557a64.13877 64.13877 0 0 1 64.340782-63.936758h579.471056a64.13877 64.13877 0 0 1 64.340782 63.936758v383.822557z" fill="" p-id="6294"></path><path d="M735.911069 256.556391h65.249834a290.695085 290.695085 0 0 0-579.37005 32.018882V384.631918h64.542793v-95.955639a226.051285 226.051285 0 0 1 449.476417-32.018882z" fill="" p-id="6295"></path><path d="M735.911069 256.556391h65.249834a290.695085 290.695085 0 0 0-579.37005 32.018882V384.631918h64.542793v-95.955639a226.051285 226.051285 0 0 1 449.476417-32.018882zM511.67789 576.543197a127.873515 127.873515 0 1 0 128.782569 127.671504A128.378545 128.378545 0 0 0 511.67789 576.543197z m0 191.911279a63.936758 63.936758 0 1 1 64.340781-63.936757A64.13877 64.13877 0 0 1 511.67789 768.454476z" fill="" p-id="6296"></path></svg>