<?xml version="1.0" standalone="no"?><!DOCTYPE svg PUBLIC "-//W3C//DTD SVG 1.1//EN" "http://www.w3.org/Graphics/SVG/1.1/DTD/svg11.dtd"><svg t="1547893125935" class="icon" style="" viewBox="0 0 1024 1024" version="1.1" xmlns="http://www.w3.org/2000/svg" p-id="6177" xmlns:xlink="http://www.w3.org/1999/xlink" width="200" height="200"><defs><style type="text/css"></style></defs><path d="M722.035613 1024H301.964387C240.094968 1024 189.935484 966.705548 189.935484 896V128C189.935484 57.294452 240.094968 0 301.964387 0h420.071226C783.905032 0 834.064516 57.294452 834.064516 128v768c0 70.705548-50.159484 128-112.028903 128z m56.006193-896c0-35.344516-25.071484-64-55.989677-64H301.947871C271.029677 64 245.925161 92.655484 245.925161 128v32.008258h532.100129V128z m0 96.008258H245.941677v511.009032h532.100129v-511.009032z m0 574.992516H245.941677v96.999226c0 35.344516 25.104516 64 56.02271 64h420.071226c30.93471 0 56.006194-28.638968 56.006193-64v-96.999226zM512 927.991742c-23.188645 0-42.000516-21.470968-42.000516-47.995871 0-26.508387 18.811871-47.995871 42.000516-47.995871 23.188645 0 42.000516 21.470968 42.000516 47.995871s-18.811871 48.012387-42.000516 48.012387z" p-id="6178"></path></svg>