<?xml version="1.0" standalone="no"?><!DOCTYPE svg PUBLIC "-//W3C//DTD SVG 1.1//EN" "http://www.w3.org/Graphics/SVG/1.1/DTD/svg11.dtd"><svg t="1547878450449" class="icon" style="" viewBox="0 0 1024 1024" version="1.1" xmlns="http://www.w3.org/2000/svg" p-id="11102" xmlns:xlink="http://www.w3.org/1999/xlink" width="200" height="200"><defs><style type="text/css"></style></defs><path d="M940.425086 1023.992943l-870.108527-11.360468A40.622277 40.622277 0 0 1 30.038538 971.321685L41.915391 58.008956a40.450149 40.450149 0 0 1 12.393237-28.745425A38.040353 38.040353 0 0 1 83.398309 17.214551l869.592142 11.188339a41.482919 41.482919 0 0 1 28.745425 12.393237A40.966534 40.966534 0 0 1 993.956985 70.402194l-11.876852 913.312728a40.450149 40.450149 0 0 1-12.393237 28.745425 40.966534 40.966534 0 0 1-29.26181 11.532596zM82.881925 34.42738a23.753705 23.753705 0 0 0-23.753705 23.753705L47.251368 971.493813a23.581576 23.581576 0 0 0 23.409448 23.925833l869.592141 11.360467a23.753705 23.753705 0 0 0 23.753705-23.409448l11.876852-912.279958a23.581576 23.581576 0 0 0-6.713003-17.21283 24.270089 24.270089 0 0 0-17.21283-7.229388L83.054053 34.42738zM461.219915 19.624347L279.624565 17.214551a8.434286 8.434286 0 0 1-8.606415-8.778543 8.434286 8.434286 0 0 1 8.606415-8.434287l181.59535 2.409796a8.606415 8.606415 0 0 1 8.606415 8.606415 8.778543 8.778543 0 0 1-8.606415 8.606415z" fill="" p-id="11103"></path><path d="M488.760442 378.683968l-242.012382-3.270437a8.606415 8.606415 0 0 1 0-17.21283l242.18451 3.270438a8.434286 8.434286 0 0 1 8.434287 8.606415 8.606415 8.606415 0 0 1-8.606415 8.606414zM625.946692 665.449706l-382.985454-4.99172a8.778543 8.778543 0 0 1-8.606415-8.778543 8.606415 8.606415 0 0 1 8.778543-8.434287l382.985455 4.991721a8.606415 8.606415 0 0 1 8.606414 8.606414 8.778543 8.778543 0 0 1-8.778543 8.606415z" fill="" p-id="11104"></path></svg>