<?xml version="1.0" standalone="no"?><!DOCTYPE svg PUBLIC "-//W3C//DTD SVG 1.1//EN" "http://www.w3.org/Graphics/SVG/1.1/DTD/svg11.dtd"><svg t="1547901865074" class="icon" style="" viewBox="0 0 1097 1024" version="1.1" xmlns="http://www.w3.org/2000/svg" p-id="7822" xmlns:xlink="http://www.w3.org/1999/xlink" width="214.2578125" height="200"><defs><style type="text/css"></style></defs><path d="M926.423983 0h-756.488223C75.648822 0 0 75.648822 0 169.93576v495.554604c0 93.190578 75.648822 169.93576 169.93576 169.93576h121.695932c18.638116 0 33.987152-15.349036 33.987152-33.987152S310.269807 767.45182 291.631692 767.45182H169.93576c-55.914347 0-100.865096-44.950749-100.865096-100.865096V169.93576c0-55.914347 44.950749-100.865096 100.865096-100.865096h757.584583c55.914347 0 100.865096 44.950749 100.865096 100.865096v495.554604c0 55.914347-44.950749 100.865096-100.865096 100.865096H606.286938c-2.192719 0-4.385439 1.09636-7.674518 1.09636-2.192719 0-4.385439 1.09636-4.385439 2.19272l-2.19272 1.096359-317.944325 189.670236c-7.674518 4.385439-13.156317 12.059957-15.349037 20.830835-2.192719 8.770878-1.09636 17.541756 3.28908 26.312634 6.578158 9.867238 17.541756 16.445396 29.601713 16.445396 6.578158 0 12.059957-2.192719 17.541756-4.385439l309.173447-184.188437h309.173448c93.190578 0 169.93576-75.648822 169.93576-169.93576V169.93576C1096.359743 75.648822 1020.710921 0 926.423983 0z" fill="" p-id="7823"></path><path d="M297.11349 374.955032c-33.987152 0-61.396146 27.408994-61.396145 61.396146s27.408994 61.396146 61.396145 61.396145 61.396146-27.408994 61.396146-61.396145-27.408994-61.396146-61.396146-61.396146zM608.479657 436.351178c0-33.987152-27.408994-61.396146-61.396145-61.396146s-61.396146 27.408994-61.396146 61.396146 27.408994 61.396146 61.396146 61.396145 61.396146-27.408994 61.396145-61.396145zM859.546039 436.351178c0-33.987152-27.408994-61.396146-61.396146-61.396146-33.987152 0-61.396146 27.408994-61.396146 61.396146s27.408994 61.396146 61.396146 61.396145c33.987152 0 61.396146-27.408994 61.396146-61.396145z" fill="" p-id="7824"></path></svg>